<svg xmlns="http://www.w3.org/2000/svg" viewBox="0 0 512 512" width="512" height="512">
  <defs>
    <linearGradient id="cupGradient" x1="0%" y1="0%" x2="100%" y2="100%">
      <stop offset="0%" style="stop-color:#2c5aa0;stop-opacity:1" />
      <stop offset="100%" style="stop-color:#4a90e2;stop-opacity:1" />
    </linearGradient>
  </defs>

  <!-- Coffee cup -->
  <path d="M120 80c0-8.8 7.2-16 16-16h240c8.8 0 16 7.2 16 16v32h32c17.7 0 32 14.3 32 32v192c0 17.7-14.3 32-32 32H88c-17.7 0-32-14.3-32-32V144c0-17.7 14.3-32 32-32h32V80z" fill="url(#cupGradient)"/>

  <!-- Cup handle -->
  <path d="M424 144c0-8.8-7.2-16-16-16H88c-8.8 0-16 7.2-16 16v192c0 8.8 7.2 16 16 16h320c8.8 0 16-7.2 16-16V144z" fill="none" stroke="#2c5aa0" stroke-width="8"/>

  <!-- Steam -->
  <path d="M160 64c0-8.8 7.2-16 16-16s16 7.2 16 16v16c0 8.8-7.2 16-16 16s-16-7.2-16-16V64z" fill="#4a90e2"/>
  <path d="M240 64c0-8.8 7.2-16 16-16s16 7.2 16 16v16c0 8.8-7.2 16-16 16s-16-7.2-16-16V64z" fill="#4a90e2"/>
  <path d="M320 64c0-8.8 7.2-16 16-16s16 7.2 16 16v16c0 8.8-7.2 16-16 16s-16-7.2-16-16V64z" fill="#4a90e2"/>

  <!-- Coffee liquid -->
  <rect x="104" y="160" width="304" height="128" rx="8" fill="#8B4513" opacity="0.8"/>

  <!-- Saucer -->
  <ellipse cx="256" cy="320" rx="160" ry="24" fill="#2c5aa0" opacity="0.3"/>
</svg>